# xmcd CD database file
#
# Track frame offsets:
#	150
#	21255
#	41292
#
# Disc length: 830 seconds
#
# Revision: 0
# Processed by: cddbd v1.5PL3 Copyright (c) Steve Scherf et al.
# Submitted via: CDex 1.51
#
DISCID=19033c03
DTITLE=EPO - Wonderful Life
DYEAR=1998
DGENRE=JPop
TTITLE0=Wonderful Life
TTITLE1=心のたび
TTITLE2=Wonderful Life (Inst.)
EXTD=YEAR: 1998
EXTT0=
EXTT1=
EXTT2=
PLAYORDER=
